<svg width="479" height="99" viewBox="0 0 479 99" fill="none" xmlns="http://www.w3.org/2000/svg"><path fill="#0F0F0E" d="M31.17 98.18H70.13C71.45 98.18 72.47 97.17 72.47 95.84C72.47 94.52 71.45 93.51 70.13 93.51H47.53C56.42 87.97 62.34 78.16 62.34 67.01C62.34 56.42 57.04 46.6 48.08 40.83C46.99 40.13 45.58 40.44 44.88 41.53C44.18 42.62 44.49 44.03 45.58 44.73C53.14 49.71 57.66 57.97 57.66 67.01C57.66 81.58 45.74 93.51 31.17 93.51C16.6 93.51 4.68 81.58 4.68 67.01C4.68 52.52 16.44 40.6 31.01 40.52C32.34 40.52 33.35 39.43 33.35 38.18C33.35 36.86 32.26 35.84 31.01 35.84C13.87 36 0 49.95 0 67.01C0 84.23 13.95 98.18 31.17 98.18Z M98.1 65.61C97.48 60.78 93.66 56.88 88.91 56.18C86.57 55.87 84.39 56.26 82.44 57.19C82.13 57.35 81.74 57.27 81.51 57.04L50.88 21.66C50.65 21.43 50.8 21.04 51.19 21.04H95.77C97.01 21.04 98.18 20.1 98.26 18.86C98.34 17.53 97.25 16.36 95.92 16.36H48.23C47.84 16.36 47.45 16.05 47.45 15.58L47.3 2.34C47.3 1.09 46.21 0 44.96 0H32.1C25.25 0 19.01 5.53 18.55 12.39C18.08 20.03 24.16 26.42 31.71 26.49C32.88 26.49 33.9 25.71 34.13 24.55C34.36 23.06 33.27 21.82 31.79 21.82C26.81 21.82 22.75 17.53 23.3 12.39C23.69 7.95 27.58 4.68 32.03 4.68H41.84C42.23 4.68 42.62 4.99 42.62 5.45L42.86 18.16C42.86 18.31 42.86 18.47 42.78 18.62L28.99 66.23C28.68 67.4 29.22 68.73 30.31 69.19C30.62 69.27 30.93 69.35 31.17 69.35C32.18 69.35 33.12 68.65 33.43 67.64L46.05 24.16C46.13 23.84 46.52 23.77 46.75 24L78.08 60.16C78.31 60.39 78.31 60.78 78.16 61.09C76.75 63.27 76.13 65.92 76.6 68.73C77.38 73.4 81.27 77.14 85.95 77.77C92.96 78.7 98.96 72.7 98.1 65.61ZM81.04 67.01C81.04 63.58 83.84 60.78 87.27 60.78C90.7 60.78 93.51 63.58 93.51 67.01C93.51 70.44 90.7 73.25 87.27 73.25C83.84 73.25 81.04 70.44 81.04 67.01Z M167 37.74V53.45H182.06C187.01 53.45 189.92 50.55 189.92 45.6C189.92 40.65 187.01 37.74 182.06 37.74H167ZM191.42 64.11C194.44 68.19 197.45 72.28 200.57 76.26C203.58 80.25 206.6 84.33 209.61 88.42H189.92C186.04 83.26 182.28 78.09 178.51 72.93C174.75 67.87 170.87 62.71 167 57.54V88.42H150.86V22.57H182.06C194.33 22.57 204.77 31.93 204.77 44.31C204.77 53.02 199.39 60.66 191.42 64.11ZM215.1 34.62H231.24V88.42H215.1V34.62ZM223.17 29.56C217.68 29.56 213.81 25.69 213.81 20.2C213.81 14.61 217.68 10.95 223.17 10.95C228.76 10.95 232.42 14.61 232.42 20.2C232.42 25.91 228.87 29.56 223.17 29.56ZM280.3 61.52C280.3 53.45 276.32 49.04 268.14 49.04C265.88 49.04 263.95 49.36 262.33 50.01C259.32 51.41 257.28 53.45 256.31 56.68C255.77 58.19 255.56 59.8 255.56 61.52C255.56 63.24 255.77 64.86 256.31 66.36C257.17 69.49 259.43 71.74 262.33 72.93C263.95 73.68 265.88 74 268.14 74C276.32 74 280.3 69.59 280.3 61.52ZM280.3 40V13.1H296.44V61.52C296.44 78.63 284.28 88.96 268.04 88.96C251.47 88.96 239.41 78.2 239.41 61.74C239.41 46.57 250.61 34.08 265.88 34.08C271.59 34.08 276.54 35.7 280.3 40ZM321.73 55.07C323.34 55.6 325.17 56.03 327.11 56.25C329.05 56.57 330.88 56.68 332.6 56.68C334.75 56.68 340.24 56.25 340.24 53.13C340.24 49.79 335.5 49.69 333.14 49.69C328.4 49.69 324.31 50.76 321.73 55.07ZM352.18 71.64V86.7C346.16 88.1 340.13 89.07 333.89 89.07C316.78 89.07 304.08 79.06 304.08 61.74C304.08 44.63 316.35 34.08 332.6 34.08C343.68 34.08 356.49 39.36 356.49 51.95C356.49 64.43 342.93 69.05 332.49 69.05C328.51 69.05 324.53 67.98 320.87 66.47C323.02 72.5 329.48 73.47 335.07 73.47C337.98 73.47 340.88 73.36 343.79 72.93C346.48 72.71 349.6 72.39 352.18 71.64ZM402.22 61.52C402.22 53.45 398.24 49.04 390.06 49.04C387.8 49.04 385.86 49.36 384.25 50.01C381.24 51.41 379.19 53.45 378.22 56.68C377.68 58.19 377.47 59.8 377.47 61.52C377.47 63.24 377.68 64.86 378.22 66.36C379.08 69.49 381.34 71.74 384.25 72.93C385.86 73.68 387.8 74 390.06 74C398.24 74 402.22 69.59 402.22 61.52ZM402.22 40V13.1H418.36V61.52C418.36 78.63 406.2 88.96 389.95 88.96C373.38 88.96 361.33 78.2 361.33 61.74C361.33 46.57 372.52 34.08 387.8 34.08C393.5 34.08 398.45 35.7 402.22 40ZM443.64 55.07C445.26 55.6 447.09 56.03 449.02 56.25C450.96 56.57 452.79 56.68 454.51 56.68C456.66 56.68 462.15 56.25 462.15 53.13C462.15 49.79 457.42 49.69 455.05 49.69C450.32 49.69 446.23 50.76 443.64 55.07ZM474.1 71.64V86.7C468.07 88.1 462.04 89.07 455.8 89.07C438.7 89.07 426 79.06 426 61.74C426 44.63 438.26 34.08 454.51 34.08C465.6 34.08 478.4 39.36 478.4 51.95C478.4 64.43 464.84 69.05 454.41 69.05C450.42 69.05 446.44 67.98 442.78 66.47C444.94 72.5 451.39 73.47 456.99 73.47C459.89 73.47 462.8 73.36 465.7 72.93C468.39 72.71 471.51 72.39 474.1 71.64Z"/></svg>
